<!-- This file is under a Creative Commons license, CC BY-SA (Attribution—Share-Alike). Source: https://github.com/FortAwesome/Font-Awesome/blob/master/svgs/solid/cog.svg -->
<svg
   xmlns:dc="http://purl.org/dc/elements/1.1/"
   xmlns:cc="http://creativecommons.org/ns#"
   xmlns:rdf="http://www.w3.org/1999/02/22-rdf-syntax-ns#"
   xmlns:svg="http://www.w3.org/2000/svg"
   xmlns="http://www.w3.org/2000/svg"
   xmlns:sodipodi="http://sodipodi.sourceforge.net/DTD/sodipodi-0.dtd"
   xmlns:inkscape="http://www.inkscape.org/namespaces/inkscape"
   viewBox="0 0 512 512"
   version="1.1"
   id="svg4530"
   sodipodi:docname="cog coloured.svg"
   inkscape:version="0.92.3 (2405546, 2018-03-11)">
  <metadata
     id="metadata4536">
    <rdf:RDF>
      <cc:Work
         rdf:about="">
        <dc:format>image/svg+xml</dc:format>
        <dc:type
           rdf:resource="http://purl.org/dc/dcmitype/StillImage" />
        <dc:title></dc:title>
      </cc:Work>
    </rdf:RDF>
  </metadata>
  <defs
     id="defs4534" />
  <sodipodi:namedview
     pagecolor="#ffffff"
     bordercolor="#666666"
     borderopacity="1"
     objecttolerance="10"
     gridtolerance="10"
     guidetolerance="10"
     inkscape:pageopacity="0"
     inkscape:pageshadow="2"
     inkscape:window-width="1920"
     inkscape:window-height="1017"
     id="namedview4532"
     showgrid="false"
     inkscape:zoom="1.65625"
     inkscape:cx="226.71698"
     inkscape:cy="256"
     inkscape:window-x="-8"
     inkscape:window-y="-8"
     inkscape:window-maximized="1"
     inkscape:current-layer="svg4530" />
  <path
     d="M487.4 315.7l-42.6-24.6c4.3-23.2 4.3-47 0-70.2l42.6-24.6c4.9-2.8 7.1-8.6 5.5-14-11.1-35.6-30-67.8-54.7-94.6-3.8-4.1-10-5.1-14.8-2.3L380.8 110c-17.9-15.4-38.5-27.3-60.8-35.1V25.8c0-5.6-3.9-10.5-9.4-11.7-36.7-8.2-74.3-7.8-109.2 0-5.5 1.2-9.4 6.1-9.4 11.7V75c-22.2 7.9-42.8 19.8-60.8 35.1L88.7 85.5c-4.9-2.8-11-1.9-14.8 2.3-24.7 26.7-43.6 58.9-54.7 94.6-1.7 5.4.6 11.2 5.5 14L67.3 221c-4.3 23.2-4.3 47 0 70.2l-42.6 24.6c-4.9 2.8-7.1 8.6-5.5 14 11.1 35.6 30 67.8 54.7 94.6 3.8 4.1 10 5.1 14.8 2.3l42.6-24.6c17.9 15.4 38.5 27.3 60.8 35.1v49.2c0 5.6 3.9 10.5 9.4 11.7 36.7 8.2 74.3 7.8 109.2 0 5.5-1.2 9.4-6.1 9.4-11.7v-49.2c22.2-7.9 42.8-19.8 60.8-35.1l42.6 24.6c4.9 2.8 11 1.9 14.8-2.3 24.7-26.7 43.6-58.9 54.7-94.6 1.5-5.5-.7-11.3-5.6-14.1zM256 336c-44.1 0-80-35.9-80-80s35.9-80 80-80 80 35.9 80 80-35.9 80-80 80z"
     id="path4528" />
  <path
     style="fill:#484848;fill-opacity:1;stroke-width:0.60472441;stroke-miterlimit:4;stroke-dasharray:none"
     d="m 243.62264,503.51007 c -19.51461,-1.1746 -40.75993,-4.55509 -45.41791,-7.22674 -1.50371,-0.86248 -3.17592,-2.53065 -4.07547,-4.06563 l -1.52549,-2.60304 V 463.37119 437.12772 L 185.81132,434.5 c -8.70468,-3.36748 -23.7603,-10.94665 -31.72066,-15.96852 -5.1293,-3.23588 -15.25984,-10.60543 -21.49931,-15.63988 -1.34455,-1.08487 -1.52634,-0.99442 -23.57641,11.73013 -19.850587,11.45528 -22.563782,12.85182 -25.430366,13.08954 -4.811629,0.39902 -7.515212,-1.18823 -13.270382,-7.79092 C 48.366251,394.74032 31.467981,365.54624 21.42445,335.4566 c -3.276522,-9.8162 -2.995441,-13.58039 1.3141,-17.59825 0.942854,-0.87904 11.223714,-7.07875 22.846356,-13.77713 11.622641,-6.69839 21.315264,-12.36408 21.539162,-12.59043 0.223898,-0.22635 -0.159641,-3.94362 -0.852307,-8.2606 -1.760899,-10.97464 -1.919054,-41.55102 -0.2717,-52.5283 0.598012,-3.98491 1.22868,-7.82271 1.401483,-8.52844 0.278803,-1.13864 -2.08673,-2.66866 -21.003333,-13.58491 -21.522044,-12.41977 -24.679692,-14.51978 -26.121945,-17.3725 -1.838587,-3.63667 -1.707737,-5.69417 0.86506,-13.60232 9.679575,-29.75263 26.774604,-59.62364 48.227485,-84.270324 6.645041,-7.634324 9.177991,-9.253548 13.951944,-8.918979 3.051085,0.21382 5.125029,1.276244 25.538845,13.082795 19.71203,11.400668 22.34025,12.758838 23.3011,12.041248 0.59565,-0.44486 4.50279,-3.38997 8.68253,-6.54469 4.17974,-3.154713 10.40367,-7.494354 13.83097,-9.643637 7.88049,-4.941911 22.4486,-12.315291 30.68429,-15.530282 l 6.33962,-2.47482 L 192,49.179402 c 0.29722,-25.770808 0.32308,-26.215303 1.6723,-28.740993 2.19367,-4.106457 4.90505,-5.468258 14.75133,-7.408927 31.13618,-6.1368387 64.3253,-6.1389861 95.16101,-0.0062 9.85119,1.959276 12.55502,3.319179 14.74306,7.415084 1.35503,2.536572 1.37244,2.857986 1.55095,28.637094 l 0.18053,26.071727 4.34777,1.651321 c 17.06341,6.480821 36.40497,17.438334 49.93267,28.288192 2.82264,2.26389 5.45051,4.36724 5.83972,4.6741 0.47671,0.37585 7.94401,-3.62666 22.88197,-12.264867 19.63665,-11.355321 22.534,-12.852625 25.31703,-13.083411 5.03889,-0.417866 7.58479,1.088489 13.64845,8.075489 22.03928,25.395309 38.22698,53.378179 48.64573,84.091469 2.88808,8.51374 3.06723,10.79501 1.1377,14.48763 -1.58066,3.02498 -4.32986,4.86551 -25.69701,17.20359 -16.56902,9.56747 -21.40891,12.62694 -21.32358,13.47937 0.0607,0.6065 0.53865,4.00697 1.06207,7.55662 1.5557,10.55012 2.18831,25.71092 1.53396,36.76187 -0.51867,8.75949 -1.96256,21.4429 -2.75045,24.16055 -0.21093,0.72755 5.17649,4.10341 22.16146,13.88679 20.33597,11.71355 22.59918,13.17354 24.13613,15.57002 2.81324,4.38655 2.80683,6.56948 -0.045,15.33524 -9.8392,30.2433 -27.88688,61.28883 -50.03338,86.0672 -4.96086,5.55042 -7.55627,6.96711 -12.12777,6.61992 -3.09538,-0.23509 -5.16566,-1.29524 -25.56102,-13.0893 l -22.19285,-12.8335 -5.2863,4.16996 c -14.69993,11.59562 -30.94135,21.02639 -48.56841,28.20183 l -7.0706,2.87821 -0.17469,26.4424 -0.17469,26.44241 -1.83643,2.61207 c -2.64952,3.76857 -5.39196,5.03262 -14.72648,6.78773 -19.50539,3.66747 -41.94518,5.24733 -59.51256,4.18994 z m 25.70493,-168.40503 c 37.02331,-6.21467 64.61595,-37.21906 66.77242,-75.02864 2.01576,-35.34251 -20.70406,-68.78719 -54.41591,-80.10288 -12.37326,-4.1532 -28.13326,-5.24595 -40.50023,-2.80818 -47.82801,9.42787 -76.34171,57.51997 -61.45371,103.64975 9.00506,27.90176 33.51264,49.20984 62.38307,54.23887 6.97739,1.21541 20.1309,1.2401 27.21436,0.0511 z"
     id="path4538"
     inkscape:connector-curvature="0" />
</svg>
