<!-- This file is under a Creative Commons license, CC BY-SA (Attribution—Share-Alike). Source: https://github.com/FortAwesome/Font-Awesome/blob/master/svgs/solid/cogs.svg -->
<svg xmlns="http://www.w3.org/2000/svg" viewBox="0 0 640 640"><path fill="#45484b" d="m 512.1,255.75 -8.2,14.3 c -3,5.3 -9.4,7.5 -15.1,5.4 -11.8,-4.4 -22.6,-10.7 -32.1,-18.6 -4.6,-3.8 -5.8,-10.5 -2.8,-15.7 l 8.2,-14.3 c -6.9,-8 -12.3,-17.3 -15.9,-27.4 h -16.5 c -6,0 -11.2,-4.3 -12.2,-10.3 -2,-12 -2.1,-24.6 0,-37.1 1,-6 6.2,-10.4 12.2,-10.4 h 16.5 c 3.6,-10.1 9,-19.4 15.9,-27.4 l -8.2,-14.300002 c -3,-5.2 -1.9,-11.9 2.8,-15.7 9.5,-7.9 20.4,-14.199999 32.1,-18.599999 5.7,-2.1 12.1,0.1 15.1,5.4 l 8.2,14.299999 c 10.5,-1.9 21.2,-1.9 31.7,0 L 552,71.049999 c 3,-5.3 9.4,-7.5 15.1,-5.4 11.8,4.4 22.6,10.699999 32.1,18.599999 4.6,3.8 5.8,10.5 2.8,15.7 L 593.8,114.25 c 6.9,8 12.3,17.3 15.9,27.4 h 16.5 c 6,0 11.2,4.3 12.2,10.3 2,12 2.1,24.6 0,37.1 -1,6 -6.2,10.4 -12.2,10.4 h -16.5 c -3.6,10.1 -9,19.4 -15.9,27.4 l 8.2,14.3 c 3,5.2 1.9,11.9 -2.8,15.7 -9.5,7.9 -20.4,14.2 -32.1,18.6 -5.7,2.1 -12.1,-0.1 -15.1,-5.4 l -8.2,-14.3 c -10.4,1.9 -21.2,1.9 -31.7,0 z m -10.5,-58.8 c 38.5,29.6 82.4,-14.3 52.8,-52.8 -38.5,-29.7 -82.4,14.3 -52.8,52.8 z m -115.3,153.9 33.7,16.8 c 10.1,5.8 14.5,18.1 10.5,29.1 -8.9,24.2 -26.4,46.4 -42.6,65.8 -7.4,8.9 -20.2,11.1 -30.3,5.3 l -29.1,-16.8 c -16,13.7 -34.6,24.6 -54.9,31.7 v 33.6 c 0,11.6 -8.3,21.6 -19.7,23.6 -24.6,4.2 -50.4,4.4 -75.9,0 -11.5,-2 -20,-11.9 -20,-23.6 v -33.6 c -20.3,-7.2 -38.9,-18 -54.9,-31.7 L 74,467.75 c -10,5.8 -22.9,3.6 -30.3,-5.3 -16.2,-19.4 -33.3,-41.6 -42.2,-65.7 -4,-10.9 0.4,-23.2 10.5,-29.1 l 33.3,-16.8 c -3.9,-20.9 -3.9,-42.4 0,-63.4 L 12,270.55 c -10.1,-5.8 -14.6,-18.1 -10.5,-29 8.9,-24.2 26,-46.4 42.2,-65.8 7.4,-8.9 20.2,-11.1 30.3,-5.3 l 29.1,16.8 c 16,-13.7 34.6,-24.6 54.9,-31.7 v -33.7 c 0,-11.5 8.2,-21.5 19.6,-23.500002 24.6,-4.2 50.5,-4.4 76,-0.1 11.5,2.000002 20,11.900002 20,23.600002 v 33.6 c 20.3,7.2 38.9,18 54.9,31.7 l 29.1,-16.8 c 10,-5.8 22.9,-3.6 30.3,5.3 16.2,19.4 33.2,41.6 42.1,65.8 4,10.9 0.1,23.2 -10,29.1 l -33.7,16.8 c 3.9,21 3.9,42.5 0,63.5 z m -117.6,21.1 c 59.2,-77 -28.7,-164.9 -105.7,-105.7 -59.2,77 28.7,164.9 105.7,105.7 z m 243.4,182.7 -8.2,14.3 c -3,5.3 -9.4,7.5 -15.1,5.4 -11.8,-4.4 -22.6,-10.7 -32.1,-18.6 -4.6,-3.8 -5.8,-10.5 -2.8,-15.7 l 8.2,-14.3 c -6.9,-8 -12.3,-17.3 -15.9,-27.4 h -16.5 c -6,0 -11.2,-4.3 -12.2,-10.3 -2,-12 -2.1,-24.6 0,-37.1 1,-6 6.2,-10.4 12.2,-10.4 h 16.5 c 3.6,-10.1 9,-19.4 15.9,-27.4 l -8.2,-14.3 c -3,-5.2 -1.9,-11.9 2.8,-15.7 9.5,-7.9 20.4,-14.2 32.1,-18.6 5.7,-2.1 12.1,0.1 15.1,5.4 l 8.2,14.3 c 10.5,-1.9 21.2,-1.9 31.7,0 l 8.2,-14.3 c 3,-5.3 9.4,-7.5 15.1,-5.4 11.8,4.4 22.6,10.7 32.1,18.6 4.6,3.8 5.8,10.5 2.8,15.7 l -8.2,14.3 c 6.9,8 12.3,17.3 15.9,27.4 h 16.5 c 6,0 11.2,4.3 12.2,10.3 2,12 2.1,24.6 0,37.1 -1,6 -6.2,10.4 -12.2,10.4 h -16.5 c -3.6,10.1 -9,19.4 -15.9,27.4 l 8.2,14.3 c 3,5.2 1.9,11.9 -2.8,15.7 -9.5,7.9 -20.4,14.2 -32.1,18.6 -5.7,2.1 -12.1,-0.1 -15.1,-5.4 l -8.2,-14.3 c -10.4,1.9 -21.2,1.9 -31.7,0 z m -10.5,-58.9 c 38.5,29.6 82.4,-14.3 52.8,-52.8 -38.5,-29.6 -82.4,14.3 -52.8,52.8 z"/></svg>
