<!-- This file is under a Creative Commons license, CC BY-SA (Attribution—Share-Alike). Source: https://github.com/FortAwesome/Font-Awesome/blob/master/svgs/solid/cog.svg -->
<svg
   xmlns:dc="http://purl.org/dc/elements/1.1/"
   xmlns:cc="http://creativecommons.org/ns#"
   xmlns:rdf="http://www.w3.org/1999/02/22-rdf-syntax-ns#"
   xmlns:svg="http://www.w3.org/2000/svg"
   xmlns="http://www.w3.org/2000/svg"
   xmlns:sodipodi="http://sodipodi.sourceforge.net/DTD/sodipodi-0.dtd"
   xmlns:inkscape="http://www.inkscape.org/namespaces/inkscape"
   viewBox="0 0 640 512"
   version="1.1"
   id="svg4552"
   sodipodi:docname="cogs coloured.svg"
   inkscape:version="0.92.3 (2405546, 2018-03-11)">
  <metadata
     id="metadata4558">
    <rdf:RDF>
      <cc:Work
         rdf:about="">
        <dc:format>image/svg+xml</dc:format>
        <dc:type
           rdf:resource="http://purl.org/dc/dcmitype/StillImage" />
        <dc:title></dc:title>
      </cc:Work>
    </rdf:RDF>
  </metadata>
  <defs
     id="defs4556" />
  <sodipodi:namedview
     pagecolor="#ffffff"
     bordercolor="#666666"
     borderopacity="1"
     objecttolerance="10"
     gridtolerance="10"
     guidetolerance="10"
     inkscape:pageopacity="0"
     inkscape:pageshadow="2"
     inkscape:window-width="1423"
     inkscape:window-height="811"
     id="namedview4554"
     showgrid="false"
     inkscape:zoom="0.4609375"
     inkscape:cx="320"
     inkscape:cy="256"
     inkscape:window-x="0"
     inkscape:window-y="0"
     inkscape:window-maximized="0"
     inkscape:current-layer="svg4552" />
  <path
     d="M512.1 191l-8.2 14.3c-3 5.3-9.4 7.5-15.1 5.4-11.8-4.4-22.6-10.7-32.1-18.6-4.6-3.8-5.8-10.5-2.8-15.7l8.2-14.3c-6.9-8-12.3-17.3-15.9-27.4h-16.5c-6 0-11.2-4.3-12.2-10.3-2-12-2.1-24.6 0-37.1 1-6 6.2-10.4 12.2-10.4h16.5c3.6-10.1 9-19.4 15.9-27.4l-8.2-14.3c-3-5.2-1.9-11.9 2.8-15.7 9.5-7.9 20.4-14.2 32.1-18.6 5.7-2.1 12.1.1 15.1 5.4l8.2 14.3c10.5-1.9 21.2-1.9 31.7 0L552 6.3c3-5.3 9.4-7.5 15.1-5.4 11.8 4.4 22.6 10.7 32.1 18.6 4.6 3.8 5.8 10.5 2.8 15.7l-8.2 14.3c6.9 8 12.3 17.3 15.9 27.4h16.5c6 0 11.2 4.3 12.2 10.3 2 12 2.1 24.6 0 37.1-1 6-6.2 10.4-12.2 10.4h-16.5c-3.6 10.1-9 19.4-15.9 27.4l8.2 14.3c3 5.2 1.9 11.9-2.8 15.7-9.5 7.9-20.4 14.2-32.1 18.6-5.7 2.1-12.1-.1-15.1-5.4l-8.2-14.3c-10.4 1.9-21.2 1.9-31.7 0zm-10.5-58.8c38.5 29.6 82.4-14.3 52.8-52.8-38.5-29.7-82.4 14.3-52.8 52.8zM386.3 286.1l33.7 16.8c10.1 5.8 14.5 18.1 10.5 29.1-8.9 24.2-26.4 46.4-42.6 65.8-7.4 8.9-20.2 11.1-30.3 5.3l-29.1-16.8c-16 13.7-34.6 24.6-54.9 31.7v33.6c0 11.6-8.3 21.6-19.7 23.6-24.6 4.2-50.4 4.4-75.9 0-11.5-2-20-11.9-20-23.6V418c-20.3-7.2-38.9-18-54.9-31.7L74 403c-10 5.8-22.9 3.6-30.3-5.3-16.2-19.4-33.3-41.6-42.2-65.7-4-10.9.4-23.2 10.5-29.1l33.3-16.8c-3.9-20.9-3.9-42.4 0-63.4L12 205.8c-10.1-5.8-14.6-18.1-10.5-29 8.9-24.2 26-46.4 42.2-65.8 7.4-8.9 20.2-11.1 30.3-5.3l29.1 16.8c16-13.7 34.6-24.6 54.9-31.7V57.1c0-11.5 8.2-21.5 19.6-23.5 24.6-4.2 50.5-4.4 76-.1 11.5 2 20 11.9 20 23.6v33.6c20.3 7.2 38.9 18 54.9 31.7l29.1-16.8c10-5.8 22.9-3.6 30.3 5.3 16.2 19.4 33.2 41.6 42.1 65.8 4 10.9.1 23.2-10 29.1l-33.7 16.8c3.9 21 3.9 42.5 0 63.5zm-117.6 21.1c59.2-77-28.7-164.9-105.7-105.7-59.2 77 28.7 164.9 105.7 105.7zm243.4 182.7l-8.2 14.3c-3 5.3-9.4 7.5-15.1 5.4-11.8-4.4-22.6-10.7-32.1-18.6-4.6-3.8-5.8-10.5-2.8-15.7l8.2-14.3c-6.9-8-12.3-17.3-15.9-27.4h-16.5c-6 0-11.2-4.3-12.2-10.3-2-12-2.1-24.6 0-37.1 1-6 6.2-10.4 12.2-10.4h16.5c3.6-10.1 9-19.4 15.9-27.4l-8.2-14.3c-3-5.2-1.9-11.9 2.8-15.7 9.5-7.9 20.4-14.2 32.1-18.6 5.7-2.1 12.1.1 15.1 5.4l8.2 14.3c10.5-1.9 21.2-1.9 31.7 0l8.2-14.3c3-5.3 9.4-7.5 15.1-5.4 11.8 4.4 22.6 10.7 32.1 18.6 4.6 3.8 5.8 10.5 2.8 15.7l-8.2 14.3c6.9 8 12.3 17.3 15.9 27.4h16.5c6 0 11.2 4.3 12.2 10.3 2 12 2.1 24.6 0 37.1-1 6-6.2 10.4-12.2 10.4h-16.5c-3.6 10.1-9 19.4-15.9 27.4l8.2 14.3c3 5.2 1.9 11.9-2.8 15.7-9.5 7.9-20.4 14.2-32.1 18.6-5.7 2.1-12.1-.1-15.1-5.4l-8.2-14.3c-10.4 1.9-21.2 1.9-31.7 0zM501.6 431c38.5 29.6 82.4-14.3 52.8-52.8-38.5-29.6-82.4 14.3-52.8 52.8z"
     id="path4550" />
  <path
     style="fill:#484848;fill-opacity:1;stroke-width:2.17290783;stroke-miterlimit:4;stroke-dasharray:none"
     d="m 190.21384,475.96425 c -25.49292,-3.15952 -31.5432,-10.69872 -31.59203,-39.36653 l -0.032,-18.77858 -14.33429,-6.70783 c -7.88387,-3.68928 -20.47824,-11.00273 -27.9875,-16.25207 l -13.65319,-9.54427 -16.736715,9.53913 C 65.003854,406.75144 55.692273,407.46698 46.13353,397.90824 29.292284,381.067 5.1119017,343.08959 1.5177845,327.83531 -1.3040204,315.85892 5.3726366,307.48902 26.019452,297.11989 l 18.672073,-9.37737 -0.189116,-33.15987 -0.189117,-33.15986 -16.565085,-9.00618 C -3.1816924,195.60051 -4.6976052,191.44624 9.6265377,162.75531 15.059552,151.87311 25.826252,135.01662 33.55254,125.29644 54.230248,99.28251 60.786955,98.182843 89.580429,115.89965 c 5.774074,3.55282 11.284261,6.45967 12.244851,6.45967 0.9606,0 9.67055,-5.21324 19.35543,-11.58498 9.68489,-6.37175 22.06394,-13.286388 27.509,-15.365878 l 9.90012,-3.78089 V 73.296649 c 0,-36.860603 5.4669,-40.743307 57.49153,-40.831628 37.97369,-0.06447 43.57068,1.283062 51.87269,12.488869 3.66297,4.944174 4.67653,9.991841 5.27553,26.272517 l 0.74145,20.152524 13.34228,6.269857 c 7.33826,3.448422 19.67449,10.564772 27.41381,15.814122 l 14.07151,9.54427 8.72611,-4.85345 c 28.50968,-15.85705 29.11631,-16.07254 37.86633,-13.45097 6.35283,1.90335 11.22716,6.22862 21.21437,18.82469 27.46027,34.6335 38.30493,61.1816 30.10452,73.697 -2.00926,3.06651 -11.5747,9.47101 -21.48975,14.38837 l -17.86869,8.86197 0.0872,33.55961 0.0872,33.5596 18.61691,9.63818 c 26.70852,13.8273 29.70954,22.26565 17.05802,47.96451 -7.81186,15.86814 -29.35363,45.33643 -39.1954,53.61773 -7.99783,6.72974 -19.5799,7.37401 -29.07679,1.61746 -3.57966,-2.16982 -10.95404,-6.5398 -16.38751,-9.71108 l -9.87902,-5.76594 -11.57734,8.69903 c -6.36752,4.78447 -18.64671,12.09928 -27.2871,16.25515 l -15.70981,7.5561 -0.89906,20.55635 c -1.40143,32.04224 -6.88929,36.6224 -46.34338,38.67819 -11.88643,0.61937 -28.37072,0.28841 -36.63175,-0.73543 z m 54.38509,-154.33924 c 18.49192,-6.87952 27.81976,-15.10308 35.80987,-31.57057 6.536,-13.47056 7.15964,-16.52857 7.2103,-35.35613 0.0521,-19.386 -0.38369,-21.42009 -7.33837,-34.2459 -8.68471,-16.01637 -18.23926,-25.01561 -34.81224,-32.78898 -10.03659,-4.70754 -15.08843,-5.63654 -30.47188,-5.60358 -16.11128,0.0345 -20.22198,0.89086 -32.54237,6.77925 -17.59025,8.40706 -22.11904,12.74445 -30.93218,29.62484 -6.55307,12.55153 -7.02493,14.91103 -7.02927,35.14962 -0.004,18.63765 0.74364,23.21558 5.3054,32.48579 17.18973,34.93226 56.64895,49.71922 94.80074,35.52566 z"
     id="path5105"
     inkscape:connector-curvature="0" />
  <path
     style="fill:#484848;fill-opacity:1;stroke-width:2.17290783;stroke-miterlimit:4;stroke-dasharray:none"
     d="m 478.1053,204.24378 c -16.16156,-8.42344 -24.46246,-15.40523 -24.47065,-20.58198 -0.003,-2.09602 2.04413,-7.71604 4.54987,-12.48892 l 4.5559,-8.67796 -7.80411,-12.88933 c -4.29226,-7.08912 -7.80411,-13.67895 -7.80411,-14.64406 0,-0.96511 -5.24995,-1.75475 -11.66656,-1.75475 -16.06244,0 -17.62157,-2.39907 -17.62157,-27.11476 0,-24.633404 1.59303,-27.122528 17.35837,-27.122528 10.70727,0 11.57344,-0.410629 14.18973,-6.726908 1.53251,-3.699799 5.169,-10.237891 8.08109,-14.529094 l 5.2947,-7.802185 -4.56364,-9.39335 c -2.51,-5.166342 -4.56364,-11.272875 -4.56364,-13.570074 0,-4.404593 11.40359,-13.236053 27.91208,-21.6163925 12.3983,-6.29384867 18.51689,-4.66925512 24.17342,6.4184765 l 4.40946,8.643255 h 17.16845 17.16844 l 6.25962,-9.220339 c 5.31729,-7.8322921 7.30495,-9.1714776 13.20338,-8.8957703 8.41201,0.3931975 29.76984,12.7110873 35.57792,20.5191623 4.19784,5.643355 4.1949,5.68356 -1.19621,16.322406 -4.87397,9.618317 -5.08887,11.085969 -2.18947,14.95288 1.76822,2.358269 5.5942,8.925051 8.50217,14.592848 l 5.28722,10.305085 h 11.81933 c 15.00161,0 16.31097,2.225566 16.31097,27.724518 0,23.45195 -2.18412,26.51277 -18.91869,26.51277 -9.65897,0 -11.1352,0.60317 -12.23892,5.00073 -0.6903,2.7504 -4.12755,9.27771 -7.63833,14.50513 l -6.38324,9.50441 5.38639,10.30127 c 4.11264,7.86528 4.8679,11.27005 3.19383,14.39808 -2.80121,5.23412 -15.82517,14.23422 -29.00239,20.04187 -12.3202,5.42993 -16.95407,3.81431 -23.0304,-8.02969 l -4.05651,-7.90694 -17.6177,-0.16168 c -17.28828,-0.15863 -17.66448,-0.0487 -20.11903,5.87798 -2.28037,5.50613 -11.44219,14.59029 -14.68115,14.55669 -0.73399,-0.008 -7.41021,-3.1805 -14.83602,-7.05085 z m 68.99343,-67.29202 C 563.57667,125.84728 569.22045,105.078 560.48476,87.690702 547.2914,61.43094 507.10077,63.286689 494.63611,90.731175 c -5.20697,11.464605 -5.12957,18.700485 0.33591,31.405345 5.83557,13.56514 15.88837,19.62965 32.65291,19.69839 9.10684,0.0373 13.98886,-1.18685 19.4738,-4.88315 z"
     id="path5107"
     inkscape:connector-curvature="0" />
  <path
     style="fill:#484848;fill-opacity:1;stroke-width:2.17290783;stroke-miterlimit:4;stroke-dasharray:none"
     d="m 475.39751,501.90785 c -14.65352,-8.07636 -21.75683,-14.57463 -21.75683,-19.90367 0,-2.24035 2.15798,-7.82294 4.79551,-12.40576 l 4.79552,-8.33239 -5.75901,-8.36861 c -3.16746,-4.60273 -6.76569,-11.05335 -7.99606,-14.33471 -2.02643,-5.40441 -3.24876,-5.9661 -12.98323,-5.9661 -6.69726,0 -11.98209,-1.23589 -14.02635,-3.28016 -4.28555,-4.28554 -6.59743,-20.30046 -4.95894,-34.35169 1.62919,-13.97159 6.78572,-18.77493 20.15541,-18.77493 7.92185,0 9.90405,-0.84323 11.4747,-4.88136 1.04425,-2.68474 4.43703,-8.58572 7.53952,-13.11329 6.77321,-9.88436 6.80558,-10.36311 1.31002,-19.37664 -6.65108,-10.90877 -5.62134,-15.90089 4.87325,-23.62527 11.43505,-8.4166 24.99893,-14.82512 31.51103,-14.888 3.55338,-0.0343 6.58549,2.68523 10.83166,9.71507 l 5.8969,9.76271 h 16.41173 16.41173 l 6.88139,-9.76271 c 4.35983,-6.18535 8.51939,-9.76271 11.35151,-9.76271 9.19606,0 34.59799,15.62211 39.10972,24.05235 1.85448,3.46514 1.22188,6.33024 -3.10831,14.0778 l -5.43666,9.72724 6.11899,9.15605 c 3.36544,5.03583 6.79562,11.35266 7.62262,14.0374 1.29351,4.19919 2.99915,4.88136 12.2049,4.88136 16.51582,0 19.37923,4.0959 19.37923,27.72067 0,25.07203 -2.33878,28.68611 -18.5637,28.68611 -8.67386,0 -11.80918,0.80611 -11.80918,3.03623 0,1.66992 -3.40822,8.10081 -7.57382,14.29086 l -7.57381,11.25464 5.57158,9.50718 c 3.30812,5.64487 5.04745,11.15859 4.2814,13.57217 -1.50644,4.7464 -17.23797,16.52112 -28.18254,21.09406 -13.03058,5.44452 -17.69809,4.26146 -23.84242,-6.04328 l -5.49775,-9.22033 -16.86251,-0.28808 -16.86251,-0.28807 -5.88262,9.50841 c -7.25709,11.73003 -12.83026,12.2691 -29.85207,2.88745 z m 74.80362,-68.0932 c 20.57733,-15.69509 18.24181,-51.02387 -4.08768,-61.8334 -31.61295,-15.30356 -64.85826,14.02961 -52.51919,46.339 6.13446,16.06287 18.02273,23.37272 36.30888,22.32559 9.42832,-0.5399 14.11966,-2.11875 20.29799,-6.83119 z"
     id="path5109"
     inkscape:connector-curvature="0" />
</svg>
